PathFileType	4	(X/Y/Z)	Walk5.trc
DataRate	CameraRate	NumFrames	NumMarkers	Units	OrigDataRate	OrigDataStartFrame	OrigNumFrames
200.000000	200.000000	4	59	mm	200.000000	744	826
Frame#	Times		RCAR		LFHD		RFHD		RWRU		LMT1		RACR1		LTH3		RASI		LTB1		RUA1		RFA1		LACR1		LLFC		LUA1		LTB4		LTB3		LToe		RTH2		STRN		LTH4		RBHD		LTH2		LElbow		RTH4		RLFC		CLAV		LASI		RTH3		LWRU		LFA1		RBack		C7		RTH1		RMT1		RMT5		LPSI		LCAR		RCAL		RToe		RLMAL		LTH1		LBHD		RPSI		RTB2		RTB4		RTB1		RElbow		RTB3		RMMAL		LTB2		LMT5		LWRR		RWRR		RElbowM		LLMAL		LMMAL		T10		LCAL		LElbowM
			X1	Y1	Z1	X2	Y2	Z2	X3	Y3	Z3	X4	Y4	Z4	X5	Y5	Z5	X6	Y6	Z6	X7	Y7	Z7	X8	Y8	Z8	X9	Y9	Z9	X10	Y10	Z10	X11	Y11	Z11	X12	Y12	Z12	X13	Y13	Z13	X14	Y14	Z14	X15	Y15	Z15	X16	Y16	Z16	X17	Y17	Z17	X18	Y18	Z18	X19	Y19	Z19	X20	Y20	Z20	X21	Y21	Z21	X22	Y22	Z22	X23	Y23	Z23	X24	Y24	Z24	X25	Y25	Z25	X26	Y26	Z26	X27	Y27	Z27	X28	Y28	Z28	X29	Y29	Z29	X30	Y30	Z30	X31	Y31	Z31	X32	Y32	Z32	X33	Y33	Z33	X34	Y34	Z34	X35	Y35	Z35	X36	Y36	Z36	X37	Y37	Z37	X38	Y38	Z38	X39	Y39	Z39	X40	Y40	Z40	X41	Y41	Z41	X42	Y42	Z42	X43	Y43	Z43	X44	Y44	Z44	X45	Y45	Z45	X46	Y46	Z46	X47	Y47	Z47	X48	Y48	Z48	X49	Y49	Z49	X50	Y50	Z50	X51	Y51	Z51	X52	Y52	Z52	X53	Y53	Z53	X54	Y54	Z54	X55	Y55	Z55	X56	Y56	Z56	X57	Y57	Z57	X58	Y58	Z58	X59	Y59	Z59

744	3.72	489.41	788.7	365.72	581.23	1566.4	-30.546	585.1	1562.4	67.161	442.25	837.02	375.17	689.95	35.44	-29.744	457.15	1364.6	188.64	570.01	564.53	-153.79	527.33	940.29	186.44	603.1	337.18	-35.338	420.71	1223.9	279.62	452.65	943.67	344.28	456.47	1345.8	-171.45	566.08	489.54	-136.41	411.48	1202	-242.1	595.16	252.06	-42.428	594.82	166.41	-47.142	731.37	31.76	-29.424	468.07	610.68	204.51	593.07	1207.4	17.949	557.07	647.56	-181.16	415.16	1557.9	82.303	603.66	664.07	-146.65	328.12	1071.9	-265.01	412.38	619.36	220.45	372.75	447.37	197	530.35	1326.2	9.9418	541.3	951.14	-160.04	393.46	536.49	206.28	274.11	838.12	-326.53	339.26	940.17	-303.01	313.97	1304.9	118.52	371.37	1405.8	21.11	440.81	698.83	234.11	230.78	40.527	88.955	212.9	28.586	175.78	300.24	971.92	-94.294	293.77	781.43	-333.54	73.438	124.68	132.81	269.82	27.976	95.055	136.21	126.12	178.14	546.69	728.44	-206.4	428.53	1551.9	-52.977	279.35	970.11	40.129	291.65	277.69	185.62	301.21	279.55	143.05	364.76	323.53	122.11	378.5	1065.9	326.76	245.76	198.27	128.81	159.36	128.38	94.929	597.94	256.95	-104.23	673.51	26.734	-120.23	332.25	817.29	-282.9	486.7	842.2	315.22	342.86	1045	243.49	555.87	69.909	-112.35	564.33	72.308	-27.636	313.28	1075.3	2.1261	500.48	29.981	-73.837	335.44	1033.6	-162.96
745	3.725	490.22	788.89	363.85	585.82	1567.2	-31.978	589.56	1563.2	65.736	443.43	837.62	373.26	689.92	35.45	-29.813	461.45	1365.7	187.12	572.47	564.88	-155.18	532.14	942.01	185.07	604.98	337.12	-36.334	424.14	1225.2	278.1	454.68	944.28	342.44	461.21	1346.5	-172.76	568.27	489.68	-137.28	417.04	1202.4	-243.24	596.3	252.04	-43.081	595.34	166.38	-47.474	731.43	31.606	-29.512	475.27	611.53	204.89	597.51	1208.6	16.204	560.55	648.22	-182.17	419.59	1558.8	80.664	607.43	664.03	-147.62	334	1072.1	-266.11	419.26	620.02	220.76	381.39	447.62	197.99	534.79	1327.1	8.5315	545.85	952.38	-161.08	401.34	536.69	206.86	280.88	837.99	-327.32	345.63	940.27	-303.73	318.27	1306.1	117.03	375.82	1406.7	19.574	446.95	699.68	234.05	232.2	41.289	89.151	214.33	29.607	175.73	304.89	972.63	-94.672	300.65	781.27	-334.02	78.12	130.64	133.46	270.52	27.945	95.247	140.7	130.08	178.86	551.21	729.36	-207.13	433.13	1552.8	-54.584	283.94	970.62	39.649	298.34	279.09	186.63	307.99	281.66	143.78	372.33	323.77	123.36	381.32	1067.1	324.8	251.48	200.43	129.53	164	131.94	95.715	599.01	256.73	-104.92	673.54	26.695	-120.4	338.84	817.42	-283.37	488.08	842.53	313.43	346.33	1046.4	241.12	555.95	69.887	-112.56	564.35	72.438	-27.915	317.85	1076	1.2976	500.48	29.998	-74.025	341.06	1034.2	-163.95
746	3.73	491	789.09	361.94	590.41	1567.9	-33.377	594.01	1564	64.346	444.6	838.25	371.33	689.86	35.492	-29.893	465.69	1366.8	185.62	574.76	565.19	-156.51	536.91	943.78	183.82	606.72	337.07	-37.382	427.6	1226.5	276.63	456.7	944.92	340.6	465.91	1347.3	-174.04	570.12	489.79	-138.18	422.61	1202.8	-244.36	597.35	252.03	-43.782	595.81	166.36	-47.845	731.46	31.53	-29.613	482.51	612.42	205.31	601.93	1209.8	14.51	563.78	648.77	-183.23	424.03	1559.8	79.06	610.97	663.95	-148.73	339.91	1072.3	-267.21	426.19	620.68	221.13	390.19	447.88	198.98	539.21	1328.1	7.159	550.37	953.66	-162.08	409.31	536.89	207.47	287.8	837.87	-328.14	352.09	940.44	-304.45	322.54	1307.3	115.53	380.2	1407.5	18.052	453.1	700.55	234.03	233.95	42.17	89.396	216.12	30.845	175.74	309.5	973.37	-95.016	307.71	781.15	-334.5	83.115	136.58	134.12	271.55	27.95	95.516	145.5	134.08	179.55	555.41	730.11	-207.99	437.73	1553.7	-56.156	288.51	971.16	39.196	305.24	280.51	187.6	314.99	283.61	144.25	380.09	324.03	124.59	384.13	1068.3	322.88	257.43	202.65	130.19	168.9	135.51	96.458	599.92	256.52	-105.65	673.56	26.669	-120.56	345.59	817.61	-283.84	489.44	842.89	311.62	349.78	1047.9	238.77	556.01	69.853	-112.77	564.34	72.574	-28.187	322.4	1076.7	0.50439	500.47	30.002	-74.205	346.64	1034.8	-164.94
747	3.735	491.76	789.3	359.98	594.98	1568.7	-34.741	598.46	1564.8	62.992	445.77	838.9	369.4	689.79	35.553	-29.976	469.87	1368	184.14	576.88	565.44	-157.75	541.64	945.57	182.7	608.33	337.02	-38.456	431.07	1227.8	275.21	458.71	945.59	338.76	470.58	1348.2	-175.27	571.68	489.87	-139.12	428.19	1203.4	-245.48	598.31	252.03	-44.512	596.25	166.36	-48.241	731.47	31.512	-29.721	489.78	613.34	205.76	606.33	1211	12.87	566.77	649.2	-184.31	428.46	1560.7	77.492	614.29	663.81	-149.94	345.82	1072.6	-268.32	433.16	621.33	221.54	399.11	448.15	199.97	543.61	1329.1	5.8248	554.87	954.95	-163.04	417.35	537.1	208.11	294.87	837.78	-328.98	358.62	940.66	-305.19	326.77	1308.4	114.02	384.53	1408.3	16.537	459.25	701.43	234.06	236.1	43.181	89.707	218.32	32.31	175.81	314.08	974.13	-95.332	314.95	781.04	-334.99	88.418	142.43	134.75	272.97	28	95.885	150.59	138.1	180.19	559.28	730.69	-208.95	442.31	1554.5	-57.692	293.06	971.72	38.766	312.35	281.96	188.52	322.2	285.39	144.46	388.02	324.32	125.79	386.94	1069.5	320.99	263.6	204.91	130.77	174.05	139.09	97.146	600.69	256.32	-106.41	673.56	26.651	-120.71	352.49	817.86	-284.33	490.78	843.27	309.78	353.2	1049.4	236.47	556.03	69.809	-112.99	564.32	72.716	-28.445	326.92	1077.4	-0.25347	500.45	29.995	-74.374	352.17	1035.4	-165.94
